<mxfile host="app.diagrams.net" modified="2023-03-08T22:22:28.448Z" agent="5.0 (Windows NT 10.0; Win64; x64) AppleWebKit/537.36 (KHTML, like Gecko) Chrome/110.0.0.0 Safari/537.36" etag="ZoNZ0C6MaV5NRv-un_Om" version="21.0.2" type="github">
  <diagram id="kgpKYQtTHZ0yAKxKKP6v" name="Page-1">
    <mxGraphModel dx="1900" dy="573" grid="1" gridSize="10" guides="1" tooltips="1" connect="1" arrows="1" fold="1" page="1" pageScale="1" pageWidth="850" pageHeight="1100" math="0" shadow="0">
      <root>
        <mxCell id="0" />
        <mxCell id="1" parent="0" />
        <mxCell id="kYcXn-ktY3dIuvGyuri_-66" value="Mulai" style="rounded=1;whiteSpace=wrap;html=1;arcSize=50;strokeWidth=2;fontStyle=1;" vertex="1" parent="1">
          <mxGeometry x="-795" y="20" width="90" height="40" as="geometry" />
        </mxCell>
        <mxCell id="kYcXn-ktY3dIuvGyuri_-67" value="" style="edgeStyle=orthogonalEdgeStyle;rounded=0;orthogonalLoop=1;jettySize=auto;html=1;" edge="1" parent="1" source="kYcXn-ktY3dIuvGyuri_-68" target="kYcXn-ktY3dIuvGyuri_-70">
          <mxGeometry relative="1" as="geometry" />
        </mxCell>
        <mxCell id="kYcXn-ktY3dIuvGyuri_-68" value="pilih tanggal" style="rounded=1;whiteSpace=wrap;html=1;strokeWidth=2;arcSize=0;fontStyle=1;" vertex="1" parent="1">
          <mxGeometry x="-800" y="80" width="100" height="50" as="geometry" />
        </mxCell>
        <mxCell id="kYcXn-ktY3dIuvGyuri_-69" style="edgeStyle=orthogonalEdgeStyle;rounded=0;orthogonalLoop=1;jettySize=auto;html=1;exitX=0.5;exitY=1;exitDx=0;exitDy=0;entryX=0.5;entryY=0;entryDx=0;entryDy=0;" edge="1" parent="1" source="kYcXn-ktY3dIuvGyuri_-66" target="kYcXn-ktY3dIuvGyuri_-68">
          <mxGeometry relative="1" as="geometry" />
        </mxCell>
        <mxCell id="kYcXn-ktY3dIuvGyuri_-70" value="" style="rhombus;whiteSpace=wrap;html=1;rounded=1;strokeWidth=2;arcSize=0;fontStyle=1;" vertex="1" parent="1">
          <mxGeometry x="-767" y="161" width="35" height="30" as="geometry" />
        </mxCell>
        <mxCell id="kYcXn-ktY3dIuvGyuri_-72" value="wb p-pro" style="shape=cylinder3;whiteSpace=wrap;html=1;boundedLbl=1;backgroundOutline=1;size=15;strokeWidth=2;rounded=1;arcSize=12;fontStyle=1;" vertex="1" parent="1">
          <mxGeometry x="-780" y="211" width="60" height="70" as="geometry" />
        </mxCell>
        <mxCell id="kYcXn-ktY3dIuvGyuri_-93" style="edgeStyle=orthogonalEdgeStyle;rounded=0;orthogonalLoop=1;jettySize=auto;html=1;exitX=0.5;exitY=1;exitDx=0;exitDy=0;entryX=0.5;entryY=0;entryDx=0;entryDy=0;" edge="1" parent="1" source="kYcXn-ktY3dIuvGyuri_-75" target="kYcXn-ktY3dIuvGyuri_-80">
          <mxGeometry relative="1" as="geometry" />
        </mxCell>
        <mxCell id="kYcXn-ktY3dIuvGyuri_-75" value="tonase per blok &lt;br&gt;" style="shape=parallelogram;perimeter=parallelogramPerimeter;whiteSpace=wrap;html=1;fixedSize=1;strokeWidth=2;rounded=1;arcSize=12;fontStyle=1;" vertex="1" parent="1">
          <mxGeometry x="-810" y="331" width="120" height="60" as="geometry" />
        </mxCell>
        <mxCell id="kYcXn-ktY3dIuvGyuri_-76" style="edgeStyle=orthogonalEdgeStyle;rounded=0;orthogonalLoop=1;jettySize=auto;html=1;entryX=0.5;entryY=0;entryDx=0;entryDy=0;" edge="1" parent="1" source="kYcXn-ktY3dIuvGyuri_-72" target="kYcXn-ktY3dIuvGyuri_-75">
          <mxGeometry relative="1" as="geometry" />
        </mxCell>
        <mxCell id="kYcXn-ktY3dIuvGyuri_-77" style="edgeStyle=orthogonalEdgeStyle;rounded=0;orthogonalLoop=1;jettySize=auto;html=1;entryX=0.5;entryY=0;entryDx=0;entryDy=0;entryPerimeter=0;" edge="1" parent="1" source="kYcXn-ktY3dIuvGyuri_-70" target="kYcXn-ktY3dIuvGyuri_-72">
          <mxGeometry relative="1" as="geometry" />
        </mxCell>
        <mxCell id="kYcXn-ktY3dIuvGyuri_-89" style="edgeStyle=orthogonalEdgeStyle;rounded=0;orthogonalLoop=1;jettySize=auto;html=1;exitX=0.5;exitY=1;exitDx=0;exitDy=0;entryX=0.5;entryY=0;entryDx=0;entryDy=0;entryPerimeter=0;" edge="1" parent="1" source="kYcXn-ktY3dIuvGyuri_-80" target="kYcXn-ktY3dIuvGyuri_-85">
          <mxGeometry relative="1" as="geometry" />
        </mxCell>
        <mxCell id="kYcXn-ktY3dIuvGyuri_-80" value="adjust bjr&lt;br&gt;jjg panen&lt;br&gt;rotasi panen&lt;br&gt;" style="shape=parallelogram;perimeter=parallelogramPerimeter;whiteSpace=wrap;html=1;fixedSize=1;strokeWidth=2;rounded=1;arcSize=0;fontStyle=1;" vertex="1" parent="1">
          <mxGeometry x="-810" y="431" width="120" height="60" as="geometry" />
        </mxCell>
        <mxCell id="kYcXn-ktY3dIuvGyuri_-85" value="save" style="strokeWidth=2;html=1;shape=mxgraph.flowchart.decision;whiteSpace=wrap;" vertex="1" parent="1">
          <mxGeometry x="-780" y="520" width="60" height="60" as="geometry" />
        </mxCell>
        <mxCell id="kYcXn-ktY3dIuvGyuri_-90" style="edgeStyle=orthogonalEdgeStyle;rounded=0;orthogonalLoop=1;jettySize=auto;html=1;exitX=0;exitY=0.25;exitDx=0;exitDy=0;entryX=0;entryY=0;entryDx=0;entryDy=0;" edge="1" parent="1" source="kYcXn-ktY3dIuvGyuri_-80" target="kYcXn-ktY3dIuvGyuri_-80">
          <mxGeometry relative="1" as="geometry" />
        </mxCell>
      </root>
    </mxGraphModel>
  </diagram>
</mxfile>
